:SAMPLES-PER-SECOND 30
:FULLY-SPECIFIED
:DEGREES
525
root  -59.8492 41.2783 -24.6942 -5.73268 -0.617233 0.956085
RightUpLeg  3.59074 -9.6153 -7.51303
RightLeg  8.6662 -4.04788 2.16301
RightFoot  -3.90461 -0.0167992 -0.137799
RightToes  0.00048216 0.542163 -0.142577
Spine  7.66126 2.14685 3.22989
Spine1  15.7826 3.7269 -3.38673
HEad  -21.3796 -13.0505 3.04148
LeftShoulder1  8.14844 -14.365 -39.3853
LeftArm  -5.11487 18.3784 -30.6031
LeftForeArm  36.0769 -29.2164 -4.3685
LeftHand  -0.25398 0.0180481 5.50724
RightShoulder  1.97025 5.56107 14.9353
RightArm  -10.3126 46.9535 54.3366
RightForeArm  173.484 59.3579 163.538
RightHand  -3.3248 9.14718 -26.5265
LeftUpLeg  5.04338 5.20357 2.94918
LeftLeg  4.32923 12.6919 -2.58513
LeftFoot  -1.98987 -0.0893314 1.23888
LeftToes  1.06247e-005 4.65855e-005 -8.18501e-006
526
root  -59.8833 41.2844 -24.9872 -4.96965 -0.442062 1.00626
RightUpLeg  2.24814 -9.6256 -7.31657
RightLeg  8.75139 -4.34816 2.20631
RightFoot  -3.53369 -0.0216189 -0.0420635
RightToes  0.00048216 0.542163 -0.142577
Spine  8.93907 1.91051 3.58808
Spine1  15.991 3.63288 -3.65927
HEad  -16.8991 -12.246 2.93878
LeftShoulder1  8.06739 -14.2634 -39.1993
LeftArm  -5.67236 17.9555 -30.9775
LeftForeArm  36.959 -30.8025 -4.6815
LeftHand  -0.25398 0.0180481 5.50724
RightShoulder  2.26659 6.16777 16.7948
RightArm  -8.75932 44.0581 54.5663
RightForeArm  173.281 59.6122 163.359
RightHand  -3.37823 9.28806 -26.6866
LeftUpLeg  3.66192 5.14547 2.86145
LeftLeg  4.37398 12.6751 -2.67879
LeftFoot  -1.47914 -0.120822 1.50461
LeftToes  1.06247e-005 4.65855e-005 -8.18501e-006
527
root  -59.9221 41.2881 -25.2975 -3.95303 -0.101547 1.10402
RightUpLeg  0.603071 -9.66741 -7.14049
RightLeg  8.89253 -4.82557 2.2351
RightFoot  -3.1805 -0.0269346 0.0679683
RightToes  0.00048216 0.542163 -0.142577
Spine  10.2969 1.63951 4.08712
Spine1  16.078 3.55489 -4.03672
HEad  -12.7764 -11.9002 2.73548
LeftShoulder1  7.96616 -14.0795 -39.1045
LeftArm  -6.16539 17.3648 -31.3423
LeftForeArm  38.1303 -32.4692 -5.00858
LeftHand  -0.25398 0.0180481 5.50724
RightShoulder  2.61453 6.8697 18.7121
RightArm  -7.78752 40.4387 54.4024
RightForeArm  172.998 59.8736 163.167
RightHand  -3.57033 9.78946 -27.2435
LeftUpLeg  1.99258 4.94976 2.66113
LeftLeg  4.32778 12.6411 -2.74388
LeftFoot  -0.861718 -0.142464 1.61093
LeftToes  1.06247e-005 4.65855e-005 -8.18501e-006
528
root  -59.9708 41.2903 -25.6219 -2.68704 0.498489 1.24965
RightUpLeg  -1.31849 -9.73792 -6.97256
RightLeg  9.08319 -5.56203 2.21984
RightFoot  -2.81618 -0.0269139 0.104048
RightToes  0.00048216 0.542163 -0.142577
Spine  11.7524 1.38385 4.56325
Spine1  16.0121 3.43162 -4.20684
HEad  -8.6105 -12.825 2.58779
LeftShoulder1  7.92489 -13.8624 -39.4178
LeftArm  -6.46933 16.5699 -31.3987
LeftForeArm  38.9007 -34.1099 -5.36362
LeftHand  -0.25398 0.0180481 5.50724
RightShoulder  3.02333 7.65008 20.7527
RightArm  -7.51844 36.1985 53.5123
RightForeArm  171.495 60.3085 162.746
RightHand  -3.85458 10.4242 -28.1845
LeftUpLeg  0.0746455 4.63815 2.37885
LeftLeg  4.1127 12.4859 -2.83684
LeftFoot  -0.09925 -0.16369 1.66914
LeftToes  1.06247e-005 4.65855e-005 -8.18501e-006
529
root  -60.0348 41.2925 -25.9498 -1.24686 1.30826 1.37921
RightUpLeg  -3.37276 -9.79128 -6.75001
RightLeg  9.20682 -6.51435 2.19221
RightFoot  -2.35629 -0.0135995 -0.0297996
RightToes  0.00048216 0.542163 -0.142577
Spine  13.2249 1.17184 5.11731
Spine1  15.9863 3.33398 -4.24974
HEad  -6.19536 -14.5842 3.40283
LeftShoulder1  7.96923 -13.7385 -39.9726
LeftArm  -6.76929 15.6913 -31.284
LeftForeArm  39.3232 -35.7882 -5.76209
LeftHand  -0.25398 0.0180481 5.50724
RightShoulder  3.49677 8.41545 23.1263
RightArm  -7.93619 31.8393 51.7595
RightForeArm  168.61 61.2171 161.852
RightHand  -4.09784 10.8826 -29.0717
LeftUpLeg  -1.94456 4.33284 2.15573
LeftLeg  3.66482 12.1199 -3.04579
LeftFoot  0.795171 -0.193266 1.77252
LeftToes  1.06247e-005 4.65855e-005 -8.18501e-006
530
root  -60.1157 41.2934 -26.2752 0.192078 2.25754 1.43648
RightUpLeg  -5.31244 -9.81525 -6.47876
RightLeg  9.16112 -7.60026 2.23289
RightFoot  -1.80832 0.0071858 -0.23336
RightToes  0.00048216 0.542163 -0.142577
Spine  14.7962 0.973067 5.8712
Spine1  16.1159 3.30881 -4.31207
HEad  -5.15766 -14.4069 3.32633
LeftShoulder1  8.04131 -13.7185 -40.4192
LeftArm  -7.01645 14.8402 -31.3221
LeftForeArm  39.9702 -37.6559 -6.21614
LeftHand  -0.25398 0.0180481 5.50724
RightShoulder  3.96547 9.01157 25.5957
RightArm  -8.90982 27.817 49.6379
RightForeArm  164.849 62.8662 160.239
RightHand  -4.23606 11.121 -29.5873
LeftUpLeg  -3.88889 4.10043 2.05187
LeftLeg  3.05379 11.5207 -3.29987
LeftFoot  1.77831 -0.225293 1.86593
LeftToes  1.06247e-005 4.65855e-005 -8.18501e-006
531
root  -60.2104 41.2882 -26.5997 1.51892 3.37672 1.47874
RightUpLeg  -7.0351 -9.87223 -6.27648
RightLeg  9.02529 -8.80739 2.35196
RightFoot  -1.3068 0.0133382 -0.256323
RightToes  0.00048216 0.542163 -0.142577
Spine  16.5724 0.731998 6.72332
Spine1  16.3248 3.26185 -4.27491
HEad  -3.33522 -15.8214 2.6702
LeftShoulder1  8.09286 -13.697 -40.7567
LeftArm  -6.88215 13.974 -31.5132
LeftForeArm  40.991 -39.6238 -6.69982
LeftHand  -0.25398 0.0180481 5.50724
RightShoulder  4.33491 9.40472 27.5634
RightArm  -10.3051 24.3448 47.8154
RightForeArm  159.965 65.4161 157.461
RightHand  -4.38534 11.4475 -30.0101
LeftUpLeg  -5.69764 3.80915 1.9302
LeftLeg  2.36728 10.7949 -3.43945
LeftFoot  2.84763 -0.252088 1.88722
LeftToes  1.06247e-005 4.65855e-005 -8.18501e-006
532
root  -60.3166 41.2763 -26.9188 2.76123 4.69716 1.60712
RightUpLeg  -8.62718 -9.99851 -6.22251
RightLeg  8.95434 -10.1594 2.46341
RightFoot  -0.934812 -0.00359682 -0.0461458
RightToes  0.00048216 0.542163 -0.142577
Spine  18.3845 0.446948 7.52564
Spine1  16.6228 3.11573 -3.99256
HEad  -2.13222 -16.697 1.97395
LeftShoulder1  8.14994 -13.654 -41.1799
LeftArm  -6.37957 12.9945 -31.6492
LeftForeArm  42.0123 -41.377 -7.14821
LeftHand  -0.25398 0.0180481 5.50724
RightShoulder  4.58357 9.68889 28.7556
RightArm  -12.0336 21.6557 46.421
RightForeArm  152.723 68.9527 152.51
RightHand  -4.72387 12.2142 -30.8623
LeftUpLeg  -7.36197 3.34443 1.68014
LeftLeg  1.53817 10.039 -3.48218
LeftFoot  4.03204 -0.277412 1.87408
LeftToes  1.06247e-005 4.65855e-005 -8.18501e-006
